# xmcd CD database file
#
# Track frame offsets:
#	150
#	14550
#	31432
#	47662
#	63377
#	79482
#	93560
#	111317
#	133590
#	153965
#	169140
#	184927
#	205475
#	224995
#	248695
#	277275
#
# Disc length: 4413 seconds
#
# Revision: 21
# Processed by: cddbd v1.5.2PL0 Copyright (c) Steve Scherf et al.
# Submitted via: CDex 1.70beta2
#
DISCID=fb113b10
DTITLE=Pink - M!ssundaztood
DYEAR=2002
DGENRE=Pop
TTITLE0=Get the party started
TTITLE1=18 wheeler
TTITLE2=M!ssundaztood
TTITLE3=Dear diary
TTITLE4=Eventually
TTITLE5=Numb
TTITLE6=Just like a pill
TTITLE7=Family portrait
TTITLE8=Misery (feat. Steven Tyler)
TTITLE9=Respect (feat. Scratch)
TTITLE10=Don't let me get me
TTITLE11=Gone to California
TTITLE12=Lonely girl (feat. Linda Perry)
TTITLE13=My Vietnam
TTITLE14=Catch-22
TTITLE15=Image Gallery and Lyrics Track
EXTD=YEAR: 2002
EXTT0=
EXTT1=
EXTT2=
EXTT3=
EXTT4=
EXTT5=
EXTT6=
EXTT7=
EXTT8=
EXTT9=
EXTT10=
EXTT11=
EXTT12=
EXTT13=
EXTT14=
EXTT15=
PLAYORDER=
